<mxfile host="app.diagrams.net" modified="2020-05-14T09:17:52.183Z" agent="5.0 (Windows NT 10.0; Win64; x64) AppleWebKit/537.36 (KHTML, like Gecko) Chrome/81.0.4044.129 Safari/537.36" etag="C5-yPQmhEyed3_aGR1Dl" version="13.1.1" type="github">
  <diagram id="C5RBs43oDa-KdzZeNtuy" name="Page-1">
    <mxGraphModel dx="2424" dy="844" grid="1" gridSize="10" guides="1" tooltips="1" connect="1" arrows="1" fold="1" page="1" pageScale="1" pageWidth="827" pageHeight="1169" math="0" shadow="0">
      <root>
        <mxCell id="WIyWlLk6GJQsqaUBKTNV-0" />
        <mxCell id="WIyWlLk6GJQsqaUBKTNV-1" parent="WIyWlLk6GJQsqaUBKTNV-0" />
        <mxCell id="TQ1zJnq8kyIjXABRO3Ba-93" value="" style="rounded=0;whiteSpace=wrap;html=1;shadow=0;comic=0;" vertex="1" parent="WIyWlLk6GJQsqaUBKTNV-1">
          <mxGeometry x="-30" y="220" width="1210" height="680" as="geometry" />
        </mxCell>
        <mxCell id="TQ1zJnq8kyIjXABRO3Ba-40" value="" style="rounded=0;whiteSpace=wrap;html=1;shadow=1;comic=1;strokeColor=none;fillColor=#D9B765;fontColor=#FFFFFF;" vertex="1" parent="WIyWlLk6GJQsqaUBKTNV-1">
          <mxGeometry x="730" y="260" width="370" height="100" as="geometry" />
        </mxCell>
        <mxCell id="TQ1zJnq8kyIjXABRO3Ba-4" value="" style="edgeStyle=orthogonalEdgeStyle;rounded=0;orthogonalLoop=1;jettySize=auto;html=1;" edge="1" parent="WIyWlLk6GJQsqaUBKTNV-1" source="TQ1zJnq8kyIjXABRO3Ba-1" target="TQ1zJnq8kyIjXABRO3Ba-3">
          <mxGeometry relative="1" as="geometry" />
        </mxCell>
        <mxCell id="TQ1zJnq8kyIjXABRO3Ba-1" value="&lt;font color=&quot;#ffffff&quot;&gt;稳态分析&lt;/font&gt;" style="rounded=1;whiteSpace=wrap;html=1;fontSize=12;glass=0;strokeWidth=1;shadow=0;fillColor=#1B284E;strokeColor=none;" vertex="1" parent="WIyWlLk6GJQsqaUBKTNV-1">
          <mxGeometry x="190" y="290" width="120" height="40" as="geometry" />
        </mxCell>
        <mxCell id="TQ1zJnq8kyIjXABRO3Ba-83" style="edgeStyle=orthogonalEdgeStyle;rounded=0;orthogonalLoop=1;jettySize=auto;html=1;entryX=0;entryY=0.5;entryDx=0;entryDy=0;strokeColor=#000000;" edge="1" parent="WIyWlLk6GJQsqaUBKTNV-1" source="TQ1zJnq8kyIjXABRO3Ba-3" target="TQ1zJnq8kyIjXABRO3Ba-79">
          <mxGeometry relative="1" as="geometry" />
        </mxCell>
        <mxCell id="TQ1zJnq8kyIjXABRO3Ba-3" value="&lt;font color=&quot;#ffffff&quot;&gt;工序评分&lt;/font&gt;" style="rounded=1;whiteSpace=wrap;html=1;fontSize=12;glass=0;strokeWidth=1;shadow=0;fillColor=#1B284E;strokeColor=none;" vertex="1" parent="WIyWlLk6GJQsqaUBKTNV-1">
          <mxGeometry x="344" y="290" width="120" height="40" as="geometry" />
        </mxCell>
        <mxCell id="TQ1zJnq8kyIjXABRO3Ba-7" value="&lt;font color=&quot;#ffffff&quot;&gt;边界变量&lt;/font&gt;" style="rounded=1;whiteSpace=wrap;html=1;fontSize=12;glass=0;strokeWidth=1;shadow=0;strokeColor=none;fillColor=#1B284E;" vertex="1" parent="WIyWlLk6GJQsqaUBKTNV-1">
          <mxGeometry x="760" y="310" width="70" height="40" as="geometry" />
        </mxCell>
        <mxCell id="TQ1zJnq8kyIjXABRO3Ba-91" style="edgeStyle=orthogonalEdgeStyle;rounded=0;orthogonalLoop=1;jettySize=auto;html=1;entryX=1;entryY=0.5;entryDx=0;entryDy=0;strokeColor=#000000;" edge="1" parent="WIyWlLk6GJQsqaUBKTNV-1" source="TQ1zJnq8kyIjXABRO3Ba-8" target="TQ1zJnq8kyIjXABRO3Ba-42">
          <mxGeometry relative="1" as="geometry">
            <Array as="points">
              <mxPoint x="875" y="635" />
            </Array>
          </mxGeometry>
        </mxCell>
        <mxCell id="TQ1zJnq8kyIjXABRO3Ba-8" value="&lt;font color=&quot;#ffffff&quot;&gt;操作变量&lt;/font&gt;" style="rounded=1;whiteSpace=wrap;html=1;fontSize=12;glass=0;strokeWidth=1;shadow=0;fillColor=#1B284E;strokeColor=none;" vertex="1" parent="WIyWlLk6GJQsqaUBKTNV-1">
          <mxGeometry x="840" y="310" width="70" height="40" as="geometry" />
        </mxCell>
        <mxCell id="TQ1zJnq8kyIjXABRO3Ba-92" style="edgeStyle=orthogonalEdgeStyle;rounded=0;orthogonalLoop=1;jettySize=auto;html=1;entryX=1;entryY=0.5;entryDx=0;entryDy=0;strokeColor=#000000;" edge="1" parent="WIyWlLk6GJQsqaUBKTNV-1" source="TQ1zJnq8kyIjXABRO3Ba-9" target="TQ1zJnq8kyIjXABRO3Ba-36">
          <mxGeometry relative="1" as="geometry">
            <Array as="points">
              <mxPoint x="955" y="565" />
            </Array>
          </mxGeometry>
        </mxCell>
        <mxCell id="TQ1zJnq8kyIjXABRO3Ba-9" value="&lt;font color=&quot;#ffffff&quot;&gt;结果变量&lt;/font&gt;" style="rounded=1;whiteSpace=wrap;html=1;fontSize=12;glass=0;strokeWidth=1;shadow=0;fillColor=#1B284E;strokeColor=none;" vertex="1" parent="WIyWlLk6GJQsqaUBKTNV-1">
          <mxGeometry x="920" y="310" width="70" height="40" as="geometry" />
        </mxCell>
        <mxCell id="TQ1zJnq8kyIjXABRO3Ba-10" value="&lt;font color=&quot;#ffffff&quot;&gt;评分结果&lt;/font&gt;" style="rounded=1;whiteSpace=wrap;html=1;fontSize=12;glass=0;strokeWidth=1;shadow=0;fillColor=#1B284E;strokeColor=none;" vertex="1" parent="WIyWlLk6GJQsqaUBKTNV-1">
          <mxGeometry x="1000" y="310" width="70" height="40" as="geometry" />
        </mxCell>
        <mxCell id="TQ1zJnq8kyIjXABRO3Ba-11" value="" style="shape=flexArrow;endArrow=classic;startArrow=classic;html=1;startWidth=7;startSize=3.26;endWidth=7;endSize=3.26;width=7;" edge="1" parent="WIyWlLk6GJQsqaUBKTNV-1">
          <mxGeometry width="50" height="50" relative="1" as="geometry">
            <mxPoint x="620" y="309.5" as="sourcePoint" />
            <mxPoint x="730" y="310" as="targetPoint" />
          </mxGeometry>
        </mxCell>
        <mxCell id="TQ1zJnq8kyIjXABRO3Ba-15" value="&lt;font color=&quot;#ffffff&quot;&gt;预测实际工况&lt;br&gt;是否为当前最优&lt;/font&gt;" style="rhombus;whiteSpace=wrap;html=1;shadow=0;fontFamily=Helvetica;fontSize=12;align=center;strokeWidth=1;spacing=6;spacingTop=-4;strokeColor=none;fillColor=#67A359;" vertex="1" parent="WIyWlLk6GJQsqaUBKTNV-1">
          <mxGeometry x="620" y="405" width="120" height="105" as="geometry" />
        </mxCell>
        <mxCell id="TQ1zJnq8kyIjXABRO3Ba-23" value="&amp;nbsp;边界对齐工况比较" style="text;html=1;strokeColor=none;fillColor=none;align=center;verticalAlign=middle;whiteSpace=wrap;rounded=0;" vertex="1" parent="WIyWlLk6GJQsqaUBKTNV-1">
          <mxGeometry x="640" y="280" width="60" height="20" as="geometry" />
        </mxCell>
        <mxCell id="TQ1zJnq8kyIjXABRO3Ba-27" value="" style="endArrow=classic;html=1;" edge="1" parent="WIyWlLk6GJQsqaUBKTNV-1">
          <mxGeometry width="50" height="50" relative="1" as="geometry">
            <mxPoint x="620" y="456.37" as="sourcePoint" />
            <mxPoint x="580" y="456.37" as="targetPoint" />
          </mxGeometry>
        </mxCell>
        <mxCell id="TQ1zJnq8kyIjXABRO3Ba-29" value="&lt;font color=&quot;#ffffff&quot;&gt;结束&lt;/font&gt;" style="rounded=0;whiteSpace=wrap;html=1;fillColor=#404040;strokeColor=none;" vertex="1" parent="WIyWlLk6GJQsqaUBKTNV-1">
          <mxGeometry x="530" y="443.75" width="50" height="26.25" as="geometry" />
        </mxCell>
        <mxCell id="TQ1zJnq8kyIjXABRO3Ba-31" value="是" style="text;html=1;strokeColor=none;fillColor=none;align=center;verticalAlign=middle;whiteSpace=wrap;rounded=0;" vertex="1" parent="WIyWlLk6GJQsqaUBKTNV-1">
          <mxGeometry x="580" y="434.37" width="40" height="20" as="geometry" />
        </mxCell>
        <mxCell id="TQ1zJnq8kyIjXABRO3Ba-32" value="" style="endArrow=classic;html=1;" edge="1" parent="WIyWlLk6GJQsqaUBKTNV-1">
          <mxGeometry width="50" height="50" relative="1" as="geometry">
            <mxPoint x="680" y="510" as="sourcePoint" />
            <mxPoint x="680" y="545" as="targetPoint" />
          </mxGeometry>
        </mxCell>
        <mxCell id="TQ1zJnq8kyIjXABRO3Ba-33" value="否" style="text;html=1;strokeColor=none;fillColor=none;align=center;verticalAlign=middle;whiteSpace=wrap;rounded=0;" vertex="1" parent="WIyWlLk6GJQsqaUBKTNV-1">
          <mxGeometry x="680" y="515" width="40" height="20" as="geometry" />
        </mxCell>
        <mxCell id="TQ1zJnq8kyIjXABRO3Ba-43" value="" style="edgeStyle=orthogonalEdgeStyle;rounded=0;orthogonalLoop=1;jettySize=auto;html=1;" edge="1" parent="WIyWlLk6GJQsqaUBKTNV-1" source="TQ1zJnq8kyIjXABRO3Ba-36" target="TQ1zJnq8kyIjXABRO3Ba-42">
          <mxGeometry relative="1" as="geometry" />
        </mxCell>
        <mxCell id="TQ1zJnq8kyIjXABRO3Ba-36" value="&lt;font color=&quot;#ffffff&quot;&gt;耗差分析&lt;/font&gt;" style="rounded=1;whiteSpace=wrap;html=1;fontSize=12;glass=0;strokeWidth=1;shadow=0;fillColor=#1B284E;strokeColor=none;" vertex="1" parent="WIyWlLk6GJQsqaUBKTNV-1">
          <mxGeometry x="620" y="545" width="120" height="40" as="geometry" />
        </mxCell>
        <mxCell id="TQ1zJnq8kyIjXABRO3Ba-90" style="edgeStyle=orthogonalEdgeStyle;rounded=0;orthogonalLoop=1;jettySize=auto;html=1;strokeColor=#000000;" edge="1" parent="WIyWlLk6GJQsqaUBKTNV-1" source="TQ1zJnq8kyIjXABRO3Ba-42">
          <mxGeometry relative="1" as="geometry">
            <mxPoint x="680" y="740" as="targetPoint" />
          </mxGeometry>
        </mxCell>
        <mxCell id="TQ1zJnq8kyIjXABRO3Ba-42" value="&lt;font color=&quot;#ffffff&quot;&gt;操作优化&lt;/font&gt;" style="rounded=1;whiteSpace=wrap;html=1;fontSize=12;glass=0;strokeWidth=1;shadow=0;fillColor=#1B284E;strokeColor=none;" vertex="1" parent="WIyWlLk6GJQsqaUBKTNV-1">
          <mxGeometry x="620" y="615" width="120" height="40" as="geometry" />
        </mxCell>
        <mxCell id="TQ1zJnq8kyIjXABRO3Ba-47" value="" style="edgeStyle=orthogonalEdgeStyle;rounded=0;orthogonalLoop=1;jettySize=auto;html=1;" edge="1" parent="WIyWlLk6GJQsqaUBKTNV-1" source="TQ1zJnq8kyIjXABRO3Ba-44" target="TQ1zJnq8kyIjXABRO3Ba-48">
          <mxGeometry relative="1" as="geometry">
            <mxPoint x="340" y="762.5" as="targetPoint" />
          </mxGeometry>
        </mxCell>
        <mxCell id="TQ1zJnq8kyIjXABRO3Ba-50" value="" style="edgeStyle=orthogonalEdgeStyle;rounded=0;orthogonalLoop=1;jettySize=auto;html=1;" edge="1" parent="WIyWlLk6GJQsqaUBKTNV-1" source="TQ1zJnq8kyIjXABRO3Ba-44">
          <mxGeometry relative="1" as="geometry">
            <mxPoint x="820" y="762.5" as="targetPoint" />
          </mxGeometry>
        </mxCell>
        <mxCell id="TQ1zJnq8kyIjXABRO3Ba-44" value="&lt;font color=&quot;#ffffff&quot;&gt;实际工况数据合并&lt;/font&gt;" style="rounded=1;whiteSpace=wrap;html=1;fontSize=12;glass=0;strokeWidth=1;shadow=0;fillColor=#1B284E;strokeColor=none;" vertex="1" parent="WIyWlLk6GJQsqaUBKTNV-1">
          <mxGeometry x="620" y="742.5" width="120" height="40" as="geometry" />
        </mxCell>
        <mxCell id="TQ1zJnq8kyIjXABRO3Ba-81" style="edgeStyle=orthogonalEdgeStyle;rounded=0;orthogonalLoop=1;jettySize=auto;html=1;entryX=0;entryY=0.5;entryDx=0;entryDy=0;strokeColor=#000000;" edge="1" parent="WIyWlLk6GJQsqaUBKTNV-1" source="TQ1zJnq8kyIjXABRO3Ba-39" target="TQ1zJnq8kyIjXABRO3Ba-1">
          <mxGeometry relative="1" as="geometry" />
        </mxCell>
        <mxCell id="TQ1zJnq8kyIjXABRO3Ba-89" style="edgeStyle=orthogonalEdgeStyle;rounded=0;orthogonalLoop=1;jettySize=auto;html=1;strokeColor=#000000;" edge="1" parent="WIyWlLk6GJQsqaUBKTNV-1" source="TQ1zJnq8kyIjXABRO3Ba-39">
          <mxGeometry relative="1" as="geometry">
            <mxPoint x="680" y="680" as="targetPoint" />
            <Array as="points">
              <mxPoint x="100" y="680" />
            </Array>
          </mxGeometry>
        </mxCell>
        <mxCell id="TQ1zJnq8kyIjXABRO3Ba-39" value="实际工况&lt;br&gt;实时采集数据" style="rounded=0;whiteSpace=wrap;html=1;shadow=1;comic=1;fillColor=#D9B765;strokeColor=none;" vertex="1" parent="WIyWlLk6GJQsqaUBKTNV-1">
          <mxGeometry x="40" y="280" width="120" height="60" as="geometry" />
        </mxCell>
        <mxCell id="TQ1zJnq8kyIjXABRO3Ba-41" value="&lt;font color=&quot;#ffffff&quot;&gt;工况是数据库&lt;/font&gt;" style="text;html=1;strokeColor=none;fillColor=none;align=center;verticalAlign=middle;whiteSpace=wrap;rounded=0;shadow=1;comic=1;" vertex="1" parent="WIyWlLk6GJQsqaUBKTNV-1">
          <mxGeometry x="890" y="280" width="40" height="20" as="geometry" />
        </mxCell>
        <mxCell id="TQ1zJnq8kyIjXABRO3Ba-48" value="实际工况&lt;br&gt;离线数据" style="rounded=0;whiteSpace=wrap;html=1;shadow=1;comic=1;fillColor=#D9B765;strokeColor=none;" vertex="1" parent="WIyWlLk6GJQsqaUBKTNV-1">
          <mxGeometry x="40" y="732.5" width="120" height="60" as="geometry" />
        </mxCell>
        <mxCell id="TQ1zJnq8kyIjXABRO3Ba-52" style="edgeStyle=orthogonalEdgeStyle;rounded=0;orthogonalLoop=1;jettySize=auto;html=1;entryX=0.822;entryY=1.018;entryDx=0;entryDy=0;entryPerimeter=0;exitX=1;exitY=0.5;exitDx=0;exitDy=0;" edge="1" parent="WIyWlLk6GJQsqaUBKTNV-1" source="TQ1zJnq8kyIjXABRO3Ba-51" target="TQ1zJnq8kyIjXABRO3Ba-40">
          <mxGeometry relative="1" as="geometry">
            <mxPoint x="1050" y="700" as="targetPoint" />
          </mxGeometry>
        </mxCell>
        <mxCell id="TQ1zJnq8kyIjXABRO3Ba-51" value="&lt;font color=&quot;#ffffff&quot;&gt;实际工况数据与&lt;br&gt;工况数据库一致&lt;/font&gt;" style="rhombus;whiteSpace=wrap;html=1;shadow=0;fontFamily=Helvetica;fontSize=12;align=center;strokeWidth=1;spacing=6;spacingTop=-4;fillColor=#67a359;strokeColor=none;" vertex="1" parent="WIyWlLk6GJQsqaUBKTNV-1">
          <mxGeometry x="823" y="710" width="120" height="105" as="geometry" />
        </mxCell>
        <mxCell id="TQ1zJnq8kyIjXABRO3Ba-53" value="更新工况数据库" style="text;html=1;strokeColor=none;fillColor=none;align=center;verticalAlign=middle;whiteSpace=wrap;rounded=0;shadow=1;comic=1;" vertex="1" parent="WIyWlLk6GJQsqaUBKTNV-1">
          <mxGeometry x="1040" y="470" width="20" height="110" as="geometry" />
        </mxCell>
        <mxCell id="TQ1zJnq8kyIjXABRO3Ba-55" value="否" style="text;html=1;strokeColor=none;fillColor=none;align=center;verticalAlign=middle;whiteSpace=wrap;rounded=0;" vertex="1" parent="WIyWlLk6GJQsqaUBKTNV-1">
          <mxGeometry x="966" y="732.5" width="40" height="20" as="geometry" />
        </mxCell>
        <mxCell id="TQ1zJnq8kyIjXABRO3Ba-57" value="" style="endArrow=classic;html=1;exitX=0.5;exitY=1;exitDx=0;exitDy=0;entryX=0.5;entryY=0;entryDx=0;entryDy=0;" edge="1" parent="WIyWlLk6GJQsqaUBKTNV-1" source="TQ1zJnq8kyIjXABRO3Ba-51" target="TQ1zJnq8kyIjXABRO3Ba-58">
          <mxGeometry width="50" height="50" relative="1" as="geometry">
            <mxPoint x="906" y="861.5" as="sourcePoint" />
            <mxPoint x="866" y="861.5" as="targetPoint" />
          </mxGeometry>
        </mxCell>
        <mxCell id="TQ1zJnq8kyIjXABRO3Ba-58" value="&lt;font color=&quot;#ffffff&quot;&gt;结束&lt;/font&gt;" style="rounded=0;whiteSpace=wrap;html=1;fillColor=#404040;strokeColor=none;" vertex="1" parent="WIyWlLk6GJQsqaUBKTNV-1">
          <mxGeometry x="858" y="843.5" width="50" height="26.25" as="geometry" />
        </mxCell>
        <mxCell id="TQ1zJnq8kyIjXABRO3Ba-59" value="是" style="text;html=1;strokeColor=none;fillColor=none;align=center;verticalAlign=middle;whiteSpace=wrap;rounded=0;" vertex="1" parent="WIyWlLk6GJQsqaUBKTNV-1">
          <mxGeometry x="876" y="815" width="40" height="20" as="geometry" />
        </mxCell>
        <mxCell id="TQ1zJnq8kyIjXABRO3Ba-74" value="优化操作建议" style="text;html=1;strokeColor=none;fillColor=none;align=center;verticalAlign=middle;whiteSpace=wrap;rounded=0;shadow=1;comic=1;" vertex="1" parent="WIyWlLk6GJQsqaUBKTNV-1">
          <mxGeometry x="110" y="430" width="20" height="140" as="geometry" />
        </mxCell>
        <mxCell id="TQ1zJnq8kyIjXABRO3Ba-79" value="&lt;font color=&quot;#ffffff&quot;&gt;实际工况&lt;br&gt;结果预测&lt;/font&gt;" style="rounded=1;whiteSpace=wrap;html=1;fontSize=12;glass=0;strokeWidth=1;shadow=0;fillColor=#1B284E;strokeColor=none;" vertex="1" parent="WIyWlLk6GJQsqaUBKTNV-1">
          <mxGeometry x="500" y="290" width="120" height="40" as="geometry" />
        </mxCell>
        <mxCell id="TQ1zJnq8kyIjXABRO3Ba-85" value="" style="edgeStyle=orthogonalEdgeStyle;rounded=0;orthogonalLoop=1;jettySize=auto;html=1;" edge="1" parent="WIyWlLk6GJQsqaUBKTNV-1">
          <mxGeometry relative="1" as="geometry">
            <mxPoint x="680" y="313" as="sourcePoint" />
            <mxPoint x="680" y="403" as="targetPoint" />
            <Array as="points">
              <mxPoint x="680.5" y="363" />
              <mxPoint x="680.5" y="363" />
            </Array>
          </mxGeometry>
        </mxCell>
      </root>
    </mxGraphModel>
  </diagram>
</mxfile>
